inDegrees=no
num_controls=7
num_derivatives=13
num_iterations=133
num_multipliers=7
num_parameters=0
num_slacks=7
num_states=26
objective=0.464255
objective_accelerations=0.007894
objective_balance=0.001815
objective_effort=0.005810
objective_height=0.443564
objective_ligament=0.005173
solver_duration=1983.748513
status=Solve_Succeeded
success=true
DataType=double
version=3
OpenSimVersion=4.5
endheader
time	/jointset/ground_pelvis/pelvis_tilt/value	/jointset/ground_pelvis/pelvis_tx/value	/jointset/ground_pelvis/pelvis_ty/value	/jointset/hip_l/hip_flexion_l/value	/jointset/hip_l/hip_adduction_l/value	/jointset/hip_l/hip_rotation_l/value	/jointset/back/lumbar_extension/value	/jointset/patellofemoral_l/patellar_flexion_l/value	/jointset/knee_l/knee_flexion_l/value	/jointset/knee_l/knee_adduction_l/value	/jointset/knee_l/knee_rotation_l/value	/jointset/ankle_l/ankle_angle_l/value	/jointset/subtalar_l/subtalar_angle_l/value	/jointset/ground_pelvis/pelvis_tilt/speed	/jointset/ground_pelvis/pelvis_tx/speed	/jointset/ground_pelvis/pelvis_ty/speed	/jointset/hip_l/hip_flexion_l/speed	/jointset/hip_l/hip_adduction_l/speed	/jointset/hip_l/hip_rotation_l/speed	/jointset/back/lumbar_extension/speed	/jointset/patellofemoral_l/patellar_flexion_l/speed	/jointset/knee_l/knee_flexion_l/speed	/jointset/knee_l/knee_adduction_l/speed	/jointset/knee_l/knee_rotation_l/speed	/jointset/ankle_l/ankle_angle_l/speed	/jointset/subtalar_l/subtalar_angle_l/speed	/forceset/tau_hip_flexion_l	/forceset/tau_hip_adduction_l	/forceset/tau_hip_rotation_l	/forceset/tau_knee_flexion_l	/forceset/tau_ankle_angle_l	/forceset/tau_subtalar_angle_l	/forceset/tau_lumbar_extension	lambda_cid13_p0	lambda_cid13_p1	lambda_cid13_p2	lambda_cid13_p3	lambda_cid13_p4	lambda_cid13_p5	lambda_cid14_p0	/jointset/ground_pelvis/pelvis_tilt/accel	/jointset/ground_pelvis/pelvis_tx/accel	/jointset/ground_pelvis/pelvis_ty/accel	/jointset/hip_l/hip_flexion_l/accel	/jointset/hip_l/hip_adduction_l/accel	/jointset/hip_l/hip_rotation_l/accel	/jointset/back/lumbar_extension/accel	/jointset/patellofemoral_l/patellar_flexion_l/accel	/jointset/knee_l/knee_flexion_l/accel	/jointset/knee_l/knee_adduction_l/accel	/jointset/knee_l/knee_rotation_l/accel	/jointset/ankle_l/ankle_angle_l/accel	/jointset/subtalar_l/subtalar_angle_l/accel	gamma_cid13_p0	gamma_cid13_p1	gamma_cid13_p2	gamma_cid13_p3	gamma_cid13_p4	gamma_cid13_p5	gamma_cid14_p0
0.5	-0.06623222252983527	0.0779980759044317	0.8790850884100175	0.3198527385722338	-0.3725306643514387	-0.4583365665397228	-0.2286252287759401	0.2844180458915124	0.2844180458915246	-0.1743574273072277	-0.172537756638391	0.0432353392203442	0.00879693589779031	-0.05540837235717579	0.02403407264914978	-0.05871348697315303	0.3403775966824349	-0.1352431288111281	0.2199080803244275	-0.1848916305578031	0.5848358467863569	0.5848358467864037	-0.000319975791216113	-0.01087663106047388	0.3097747855741353	0.01877572275470856	-0.03320556905114766	0.02441423037159992	-0.01582314599773546	-0.1396163356232363	0.02430545561306518	0.002865783879433929	0.07547209208620415	-27.64004474628471	-2.888039386544993	7.529661600635055	2.721520853625661	-545.1022617735595	-63.56655816721796	-42.36334602774678	-0.001301085744286004	0.04496045217606234	-0.0315691969337332	-0.1857225777558421	0.1371737317646012	-0.08119626049865916	0.458239250892899	-0.3470076350047251	-0.3470076350047202	0.0008825366346096597	0.02919489143541031	-0.1064649576993788	0.09116175143715004	8.959241207002413e-09	-3.853927927919201e-08	-1.475478246959594e-08	-1.094891111575622e-08	1.426827607409952e-08	-1.836932761098704e-09	-8.926830651075352e-10
0.51	-0.06678643868891307	0.07824064316792001	0.8784964562304878	0.3232469377366921	-0.373876088463902	-0.4561420521084953	-0.2304509207045363	0.2902483890032203	0.2902483890032289	-0.1743605329474079	-0.1726452764577843	0.04632739685670034	0.008989226818313441	-0.05543182122538647	0.02447792422426764	-0.05900268760236197	0.3384150309384323	-0.1338251135167896	0.2189635978052341	-0.1802245968516129	0.5811515239588616	0.5811515239589574	-0.000301419270479649	-0.01062446381003712	0.3085959951680669	0.01967950863092415	-0.034443415027091	0.02588821022646261	-0.0155982739359472	-0.139750594838539	0.02196191205693344	0.003071924037572908	0.07657014600507227	-28.38635235137174	-2.84091205715684	7.51531650130925	2.964320696819739	-545.4352384486513	-63.30751586366295	-42.31530379381335	-0.002408792827944136	0.04387690427601516	-0.02605316995505207	-0.2086017383668937	0.1466091342789246	-0.1057555246039154	0.4742591769518636	-0.3913322206934038	-0.3913322206860295	0.002294302784633667	0.02365680390544494	-0.1296978344191487	0.08955185032466512	1.019219725414689e-08	-3.752956874204547e-08	-1.799679003793256e-08	-1.1329431437833e-08	1.68175291366229e-08	8.425308928580428e-10	-3.65098751986705e-10
0.52	-0.0673407977377684	0.07848760482597873	0.8779052405098582	0.3266200956105807	-0.3752068336822208	-0.4539579187578541	-0.2322292775467766	0.2960394513638334	0.2960394513638496	-0.1743634626037778	-0.1727501887722659	0.04940644423852402	0.009190468566520792	-0.05543695031233306	0.02491295156323343	-0.05923019519316697	0.3361693385686549	-0.1323073499820313	0.2178318642070721	-0.175424613286627	0.5769796965685081	0.5769796965686532	-0.0002847790300835814	-0.01035513007729304	0.307172734667656	0.02056588829157673	-0.03568126100302783	0.02736219008132285	-0.01537340187413061	-0.1398848540538426	0.01961836850080179	0.003278064195708786	0.077668199923946	-29.13487252945816	-2.793008159890126	7.50040314930793	3.209280320524839	-545.804441621996	-63.054274441417	-42.26428810138487	0.00236287050855139	0.04319560494563257	-0.01923058925294395	-0.2423479029108101	0.1571233798485928	-0.1186464762923889	0.4848292226520374	-0.4445085475763053	-0.4445085475763061	0.0004992805665507815	0.03262818789686781	-0.1553589765678754	0.08768050832454992	1.138669561561704e-08	-3.639917131601476e-08	-2.114718352550292e-08	-1.166942881483192e-08	1.921280936147131e-08	3.503071941973352e-09	1.626731528139961e-10
0.53	-0.06789514326811492	0.07873886678753766	0.8773120560853015	0.3299694568320979	-0.3765219152829598	-0.4517860468994196	-0.2339589756444903	0.301786436723876	0.3017864367238799	-0.1743662038534054	-0.1728523523090528	0.05247006634259925	0.009400490191554719	-0.05542885521365826	0.02533753688078929	-0.05939612579129588	0.3336571909986092	-0.1306939499716681	0.2165119663839047	-0.1704965621034995	0.5723395911323049	0.5723395911324041	-0.0002641594278459215	-0.01007521290924891	0.3055119707749254	0.02143433518319196	-0.0368571022337993	0.02876627675518851	-0.015161360779989	-0.1400731380391237	0.01735135414165312	0.003479474234922093	0.07870956373370556	-29.85721186306498	-2.746681573116832	7.484653239406609	3.441926161663151	-546.1400496484956	-62.81236914740915	-42.21044516959395	0.000530295293006934	0.04180204536168215	-0.01368561187462231	-0.2625025677149674	0.1657085796632167	-0.1432416904579493	0.4995596890277262	-0.4854292756388386	-0.4854292756457371	0.002731836184276746	0.02602576513774423	-0.1773919350930118	0.08581965412327135	1.253937123998017e-08	-3.503648569675757e-08	-2.43073926156614e-08	-1.193383601408376e-08	2.144383902572225e-08	6.254892379642126e-09	7.053568193918994e-10
0.54	-0.06844930835432714	0.07899431701231235	0.8767175300914073	0.3332923257011816	-0.3778204108299894	-0.4496282900702421	-0.2356388399057956	0.3074846874827502	0.3074846874827545	-0.1743687611997785	-0.1729516462173906	0.05551588943985365	0.009619074860413334	-0.05540086148513782	0.02575060420638331	-0.05949850906066728	0.3308708680820245	-0.1289901392399821	0.2150088583555765	-0.1654578460049834	0.5672327763362415	0.5672327763362945	-0.0002479983803314143	-0.009781204386020294	0.3036129333035008	0.02227849705653854	-0.03803294346456211	0.03017036342905267	-0.01494931968580109	-0.1402614220244072	0.01508433978250513	0.00368088427413352	0.07975092754347156	-30.58221378525573	-2.699578787994088	7.468425556574699	3.678368291944142	-546.517988288866	-62.5771020021081	-42.15393232018869	0.006342596477692083	0.04089200655325402	-0.006521123501440107	-0.2971829722186033	0.1752055241131885	-0.1552885173245661	0.506962205729737	-0.5378504195483539	-0.5378504195483441	-0.0003924303780559121	0.03544645893375922	-0.2030136923066747	0.08282350467082525	1.364577489988445e-08	-3.34168003743562e-08	-2.74784615214493e-08	-1.211461152731754e-08	2.349314466548238e-08	9.107702779114738e-09	1.264538605382878e-09
0.55	-0.06900312498617474	0.0792538364793412	0.876122296460732	0.3365860333271791	-0.3791014223978599	-0.4474864894248142	-0.2372677687702837	0.3131296014231318	0.31312960142311	-0.1743711409305128	-0.173047954226172	0.05854155718476538	0.009845988324210233	-0.05535943848004136	0.02615112825133482	-0.05953731645145874	0.3278263865237933	-0.127198189680047	0.2133210404489057	-0.1603130165163838	0.5616746424872923	0.5616746424873205	-0.0002285030314319382	-0.009478387962825848	0.301481705435283	0.0230993970643245	-0.03913370931907845	0.03150611220553121	-0.01475354900415106	-0.1405238899307267	0.01293610489085354	0.003861639252397781	0.08072596547641871	-31.26772545969177	-2.64924615984823	7.450342114256362	3.893232351137392	-546.8575177437152	-62.34158278909192	-42.09490498039305	0.003498588004518998	0.03930601858872436	-0.0009205312367277927	-0.3147183561203086	0.1832950927312789	-0.1800610360620798	0.5204798768584858	-0.5761005692396534	-0.5761005692433739	0.00302887409226222	0.02799705093044778	-0.2240131683056691	0.08101176302363958	1.468921598549672e-08	-3.181546891971376e-08	-3.049608966215493e-08	-1.226661786903425e-08	2.541923501056171e-08	1.183740981172025e-08	1.801997878237009e-09
0.5600000000000001	-0.06955643610087717	0.07951729586984407	0.8755270027592752	0.3398479686158945	-0.3803640933859723	-0.4453624734801972	-0.2388448020285992	0.3187166728846811	0.3187166728846481	-0.1743733440364374	-0.1731411745073476	0.06154474548414964	0.01008096849092311	-0.05529975805578619	0.02653858890118476	-0.05951052321697137	0.3245164006257671	-0.1253220232882065	0.2114519181932855	-0.1550787247704434	0.5556642805714855	0.5556642805714891	-0.0002126734197993701	-0.009163658862902596	0.299117044198012	0.02389183763975762	-0.04023447517358979	0.03284186098200938	-0.01455777832243927	-0.1407863578370517	0.01078786999920281	0.004042394230661367	0.08170100340936842	-31.9563281782074	-2.598119739188417	7.431843683482666	4.113469045678137	-547.2451789390453	-62.11339063310045	-42.03352945572841	0.009994080309446525	0.03827932753293083	0.006599001554325599	-0.350283840177586	0.1920488904942798	-0.1915493871144576	0.5248546571978927	-0.6282960329198013	-0.6282960329197962	-0.001125577831410473	0.03782899427951871	-0.2497003661173172	0.07713161820026557	1.565710198195859e-08	-3.023616210638203e-08	-3.332958888476186e-08	-1.238410120493048e-08	2.719746700202409e-08	1.441939280408526e-08	2.313390135326923e-09
0.5700000000000001	-0.07010908505134439	0.07978455863862483	0.8749323017051502	0.3430755508538786	-0.3816075923849804	-0.4432580593488628	-0.2403690521852399	0.3242414537476924	0.324241453747705	-0.1743753758111029	-0.1732312131031066	0.06452314747060331	0.01032373448104257	-0.05522691838127732	0.02691132565329058	-0.05941864537726136	0.320957731801511	-0.1233652553879582	0.2094014481565237	-0.1497600061629906	0.5492201501917123	0.5492201501917059	-0.0001945999047831294	-0.0088426327007174	0.2965254854540939	0.02465547211929913	-0.04126959553173418	0.03409819162501545	-0.01437454380725345	-0.1410937702313498	0.008716808465507089	0.004223645349116372	0.08261522282928865	-32.61727289534651	-2.551302794257269	7.413177029804	4.318696267678436	-547.5818674388008	-61.90096133249802	-41.96996858073047	0.006398505768663692	0.03637247866619525	0.01214415046235808	-0.3650025730450067	0.199377042466012	-0.2162119451353417	0.5370755217179595	-0.6632333367435282	-0.6632333367450247	0.003127611746884544	0.02944886714767147	-0.2695628605860771	0.07510457582577157	1.657027562001779e-08	-2.855843127164604e-08	-3.609660132129967e-08	-1.244695146077639e-08	2.887721065899133e-08	1.696917669596219e-08	2.816794763853802e-09
